Coordinates
version=1
nRows=10
nColumns=40
inDegrees=yes

Units are S.I. units (second, meters, Newtons, ...)
Angles are in degrees.

endheader
time	pelvis_tilt	pelvis_list	pelvis_rotation	pelvis_tx	pelvis_ty	pelvis_tz	hip_flexion_r	hip_adduction_r	hip_rotation_r	knee_angle_r	knee_angle_r_beta	ankle_angle_r	subtalar_angle_r	mtp_angle_r	hip_flexion_l	hip_adduction_l	hip_rotation_l	knee_angle_l	knee_angle_l_beta	ankle_angle_l	subtalar_angle_l	mtp_angle_l	lumbar_extension	lumbar_bending	lumbar_rotation	arm_flex_r	arm_add_r	arm_rot_r	elbow_flex_r	pro_sup_r	wrist_flex_r	wrist_dev_r	arm_flex_l	arm_add_l	arm_rot_l	elbow_flex_l	pro_sup_l	wrist_flex_l	wrist_dev_l
     51.36000000	     -3.29186004	     -4.39425613	      8.24275687	      0.96544778	      0.92052716	      0.51929651	      4.42071776	      6.07564963	    -15.92355726	     17.45047444	     17.45047444	     18.82709868	     -2.23387206	     -2.10191495	     29.46498472	     -8.52526063	      2.66343020	     20.87848373	     20.87848373	      5.29693802	     -6.67825767	      4.92245240	     -8.88849673	      3.75158910	      5.13586233	     52.27586226	    -19.31919600	     -6.03328665	     66.31260978	     45.05128013	      0.00000000	      0.00000000	    -22.89790904	    -10.15610571	     17.23567042	     32.21047906	     43.25613613	      0.00000000	      0.00000000
     51.37957143	     -3.25463661	     -4.66147934	      8.75837938	      0.96523301	      0.92006197	      0.51679912	      3.49042666	      6.43354695	    -16.26255258	     16.43707155	     16.43707155	     18.86092887	     -1.94750890	     -2.01657686	     29.24048776	     -8.54524722	      2.73256686	     20.89169136	     20.89169136	      5.01167044	     -6.26307534	      4.49449670	     -8.90469240	      3.93791433	      5.10506622	     54.03211293	    -19.41405609	     -6.29270337	     67.23039486	     45.04207950	      0.00000000	      0.00000000	    -23.38492567	    -10.02922618	     17.46521829	     32.23214467	     43.23861612	      0.00000000	      0.00000000
     51.39914286	     -3.32813738	     -4.85044080	      9.26657080	      0.96516471	      0.91933404	      0.51413353	      2.78423517	      6.65498674	    -16.60571658	     15.65998359	     15.65998359	     18.88199001	     -1.82868090	     -2.25076485	     29.10181155	     -8.52764596	      2.52858862	     20.93548658	     20.93548658	      4.22215151	     -5.72753896	      2.74778506	     -8.77748565	      3.95622367	      5.00098798	     55.21350046	    -19.49822190	     -6.90810891	     68.26212282	     45.05122538	      0.00000000	      0.00000000	    -23.86153328	    -10.09376863	     17.99649447	     32.62132659	     43.23630115	      0.00000000	      0.00000000
     51.41871429	     -3.54872873	     -4.91135468	      9.75023078	      0.96484668	      0.91851867	      0.51117246	      2.52889024	      6.60870010	    -16.82045462	     15.47916727	     15.47916727	     19.01249131	     -1.94920060	     -2.25585483	     29.15327248	     -8.26449502	      2.71634755	     21.15062620	     21.15062620	      3.85921554	     -5.55620134	      2.66217852	     -8.57664530	      3.79406490	      4.98320083	     56.34598283	    -19.83154670	     -7.10420850	     68.64812718	     45.05214400	      0.00000000	      0.00000000	    -23.86930532	    -10.00757946	     18.05633590	     32.64133040	     43.23584027	      0.00000000	      0.00000000
     51.43828571	     -3.56611032	     -5.10326564	     10.20507359	      0.96484482	      0.91799025	      0.50805815	      1.95141089	      6.74634739	    -17.14332180	     15.08281238	     15.08281238	     19.02629871	     -1.81086132	     -2.46844656	     29.05131108	     -8.19868289	      2.89785778	     21.46703067	     21.46703067	      3.18925133	     -5.43633867	      1.15842413	     -8.58437536	      3.90784062	      4.97734527	     57.21400698	    -19.79561981	     -7.81665502	     69.58992620	     45.06803489	      0.00000000	      0.00000000	    -23.58148678	     -9.89646488	     18.60594090	     32.61502085	     43.25890756	      0.00000000	      0.00000000
     51.45785714	     -3.75614511	     -5.12525417	     10.62071591	      0.96475000	      0.91754229	      0.50469041	      1.70093246	      6.60961693	    -17.38853447	     15.01613208	     15.01613208	     19.08016316	     -1.95798949	     -2.45155315	     29.08836829	     -7.89715180	      3.11717704	     21.81810473	     21.81810473	      2.99802715	     -5.36942907	      1.07447201	     -8.43470924	      3.73747087	      4.87081126	     57.89947825	    -19.97144066	     -7.92990875	     69.81726646	     45.06886904	      0.00000000	      0.00000000	    -23.19389491	     -9.75569555	     18.64664579	     32.73075564	     43.26573171	      0.00000000	      0.00000000
     51.47742857	     -3.90552047	     -5.15214835	     10.97331541	      0.96475633	      0.91727932	      0.50110238	      1.41016432	      6.45929984	    -17.59714489	     14.98845877	     14.98845877	     19.11516096	     -2.03598784	     -2.44508190	     29.11900060	     -7.59722033	      3.40299919	     22.27463463	     22.27463463	      2.97178928	     -5.39581074	      0.93872585	     -8.34950626	      3.66057836	      4.81283891	     58.47069676	    -20.02712374	     -8.02019807	     70.02582118	     45.06873990	      0.00000000	      0.00000000	    -22.65780759	     -9.56201874	     18.68963401	     32.87602038	     43.27391728	      0.00000000	      0.00000000
     51.49700000	     -3.97435909	     -5.31978771	     11.22013011	      0.96480815	      0.91707481	      0.49741845	      1.08966569	      6.41139980	    -17.90902165	     15.03832576	     15.03832576	     19.09934182	     -1.77182733	     -2.53773868	     29.28623627	     -7.42627794	      3.91483375	     23.12404256	     23.12404256	      3.09797315	     -5.93105256	      0.77716280	     -8.37770887	      3.80157213	      4.79995596	     59.05367650	    -20.04651207	     -8.30539955	     70.35177867	     45.07487594	      0.00000000	      0.00000000	    -21.98155686	     -9.36064237	     18.84957052	     32.80610231	     43.28625169	      0.00000000	      0.00000000
     51.51657143	     -4.13533033	     -5.33031789	     11.39795492	      0.96496538	      0.91705125	      0.49346177	      0.83266734	      6.13303438	    -18.27861547	     15.11843858	     15.11843858	     19.09810016	     -1.35429709	     -2.72027493	     29.36710914	     -7.03392267	      4.52236651	     23.76135268	     23.76135268	      3.29919647	     -6.65124765	      0.96293864	     -8.29860935	      3.76252495	      4.92741120	     59.31768605	    -20.04012363	     -8.68403786	     70.55122723	     45.09045271	      0.00000000	      0.00000000	    -21.15149682	     -9.14787731	     19.11602590	     32.57640034	     43.30441959	      0.00000000	      0.00000000
     51.53614286	     -4.26483932	     -5.32249956	     11.40516245	      0.96530599	      0.91720619	      0.48955342	      0.53206315	      5.85585910	    -18.37662349	     15.20104258	     15.20104258	     18.99144448	     -1.17812544	     -2.75623177	     29.35032774	     -6.73035696	      4.80718662	     24.38183218	     24.38183218	      3.67214719	     -7.20748341	      0.97183284	     -8.29546597	      3.69857217	      4.97977259	     59.49944824	    -20.00443999	     -8.78622977	     70.57241531	     45.09716628	      0.00000000	      0.00000000	    -20.42045220	     -8.97050495	     19.20841210	     32.67367817	     43.31912743	      0.00000000	      0.00000000
